custom-analysis
version=1
nRows=8
nColumns=42
inDegrees=no

This file contains tibia displacement and acting force.

Units are S.I. units (seconds, meters, Newtons, ...)
Angles are in degrees.

endheader
time	APT	SIT	knee_angle	aACL_R_force	pACL_R_force	aPCL_R_force	pPCL_R_force	aMCL_R_force	mMCL_R_force	pMCL_R_force	aLCL_R_force	mLCL_R_force	pLCL_R_force	aACL_R_length	pACL_R_length	aPCL_R_length	pPCL_R_length	aMCL_R_length	mMCL_R_length	pMCL_R_length	aLCL_R_length	mLCL_R_length	pLCL_R_length	aACL_R_strain	pACL_R_strain	aPCL_R_strain	pPCL_R_strain	aMCL_R_strain	mMCL_R_strain	pMCL_R_strain	aLCL_R_strain	mLCL_R_strain	pLCL_R_strain	femur_lat_meniscii_force_r	femur_lat_meniscii_torque_r	femur_med_meniscii_force_r	femur_med_meniscii_torque_r	femur_lat_tibia_force_r	femur_lat_tibia_torque_r	femur_med_tibia_force_r	femur_med_tibia_torque_r
      0.22109892	      0.00108605	      0.00076871	     15.00005728	     50.18786999	     47.80994058	      0.00000000	      0.00000000	      0.00000000	      0.00000000	      0.00000000	      3.17123610	      0.00000000	      0.00000000	      0.03352665	      0.02714752	      0.02997526	      0.02957049	      0.05614006	      0.05964668	      0.06043145	      0.05648632	      0.05420081	      0.05147566	      0.08131315	      0.07054068	     -0.03601949	     -0.01719349	     -0.03251823	     -0.00245550	     -0.00488318	      0.00909514	     -0.03760369	     -0.01656475	     74.32448858	     17.45825585	     48.22803035	     10.66703133	      0.00000000	      0.00000000	     54.96322374	      1.11742224
      0.22153148	      0.00108680	      0.00076803	     15.00005728	     50.21235518	     47.83665944	      0.00000000	      0.00000000	      0.00000000	      0.00000000	      0.00000000	      3.00701737	      0.00000000	      0.00000000	      0.03352732	      0.02714809	      0.02997576	      0.02957098	      0.05614055	      0.05964715	      0.06043198	      0.05648755	      0.05420209	      0.05147694	      0.08133452	      0.07056336	     -0.03600347	     -0.01717700	     -0.03250983	     -0.00244766	     -0.00487456	      0.00911705	     -0.03758108	     -0.01654016	     74.49383970	     17.50397409	     48.26058433	     10.68229708	      0.00000000	      0.00000000	     54.84393895	      1.11489199
      0.22233443	      0.00108825	      0.00076683	     15.00005728	     50.25042788	     47.87528387	      0.00000000	      0.00000000	      0.00000000	      0.00000000	      0.00000000	      2.87094290	      0.00000000	      0.00000000	      0.03352854	      0.02714914	      0.02997661	      0.02957183	      0.05614147	      0.05964803	      0.06043296	      0.05648969	      0.05420432	      0.05147920	      0.08137381	      0.07060465	     -0.03597628	     -0.01714873	     -0.03249399	     -0.00243287	     -0.00485833	      0.00915533	     -0.03754150	     -0.01649709	     74.59097801	     17.53846065	     48.26622316	     10.69498274	      0.00000000	      0.00000000	     54.60516326	      1.10983895
      0.22411852	      0.00109165	      0.00076419	     15.00005728	     50.31696907	     47.93692565	      0.00000000	      0.00000000	      0.00000000	      0.00000000	      0.00000000	      2.66542068	      0.00000000	      0.00000000	      0.03353114	      0.02715132	      0.02997840	      0.02957367	      0.05614372	      0.05965020	      0.06043536	      0.05649411	      0.05420893	      0.05148387	      0.08145794	      0.07069056	     -0.03591860	     -0.01708759	     -0.03245515	     -0.00239657	     -0.00481882	      0.00923425	     -0.03745962	     -0.01640789	     74.71515935	     17.59085132	     48.25046738	     10.71482613	      0.00000000	      0.00000000	     53.99770688	      1.09691290
      0.22863383	      0.00110086	      0.00075766	     15.00005728	     50.36187493	     47.92686186	      0.00000000	      0.00000000	      0.00000000	      0.00000000	      0.00000000	      2.22090714	      0.00000000	      0.00000000	      0.03353663	      0.02715536	      0.02998317	      0.02957873	      0.05615095	      0.05965717	      0.06044292	      0.05650386	      0.05421917	      0.05149428	      0.08163503	      0.07084999	     -0.03576527	     -0.01691944	     -0.03233056	     -0.00227998	     -0.00469436	      0.00940852	     -0.03727773	     -0.01620901	     75.09764263	     17.71826194	     48.35459205	     10.78264457	      0.00000000	      0.00000000	     52.27297923	      1.05982992
      0.23268460	      0.00110982	      0.00075234	     15.00005728	     50.38600239	     47.86698526	      0.00000000	      0.00000000	      0.00000000	      0.00000000	      0.00000000	      1.97065458	      0.00000000	      0.00000000	      0.03353998	      0.02715700	      0.02998739	      0.02958341	      0.05615884	      0.05966477	      0.06045105	      0.05651059	      0.05422633	      0.05150161	      0.08174293	      0.07091462	     -0.03562939	     -0.01676382	     -0.03219471	     -0.00215294	     -0.00456043	      0.00952862	     -0.03715063	     -0.01606897	     75.34901849	     17.80664822	     48.32475372	     10.80630996	      0.00000000	      0.00000000	     50.70188943	      1.02599276
      0.23308968	      0.00111074	      0.00075181	     15.00005728	     50.39669188	     47.87100669	      0.00000000	      0.00000000	      0.00000000	      0.00000000	      0.00000000	      1.78388388	      0.00000000	      0.00000000	      0.03354026	      0.02715709	      0.02998783	      0.02958391	      0.05615972	      0.05966562	      0.06045196	      0.05651118	      0.05422696	      0.05150226	      0.08175200	      0.07091826	     -0.03561526	     -0.01674737	     -0.03217956	     -0.00213875	     -0.00454559	      0.00953922	     -0.03713934	     -0.01605647	     75.58157749	     17.86498155	     48.36143404	     10.82227137	      0.00000000	      0.00000000	     50.53710481	      1.02263816
      0.23378936	      0.00111238	      0.00075093	     15.00005728	     50.40635392	     47.86539907	      0.00000000	      0.00000000	      0.00000000	      0.00000000	      0.00000000	      1.65434102	      0.00000000	      0.00000000	      0.03354074	      0.02715724	      0.02998851	      0.02958469	      0.05616123	      0.05966708	      0.06045351	      0.05651208	      0.05422794	      0.05150327	      0.08176742	      0.07092412	     -0.03559339	     -0.01672134	     -0.03215348	     -0.00211433	     -0.00452002	      0.00955531	     -0.03712203	     -0.01603725	     75.75152163	     17.91570025	     48.36292970	     10.83434921	      0.00000000	      0.00000000	     50.22942029	      1.01624672
